<svg xmlns="http://www.w3.org/2000/svg" viewBox="0 0 640 350"><rect width="640" height="350" fill="#fff"/><rect x="24" y="24" width="592" height="54" rx="8" fill="#f4f4f5" stroke="#c8c8c8"/><g fill="#111" font-family="Arial,PingFang SC,sans-serif" font-size="18"><text x="42" y="58">Menu</text><text x="112" y="58">App</text><text x="159" y="58">File</text><text x="203" y="58">Edit</text><text x="249" y="58">View</text><text x="529" y="58">10:09</text></g><g stroke="#333" fill="none" stroke-width="2"><circle cx="410" cy="49" r="7"/><path d="m415 55 7 7M446 44h25m-25 12h25"/><circle cx="454" cy="44" r="3" fill="#fff"/><circle cx="465" cy="56" r="3" fill="#fff"/><path d="M360 42v16m7-20v20m7-12v12"/></g><circle cx="493" cy="50" r="4" fill="#de9d39"/><path d="M60 87v20m0 0h212M349 87v20m0 0h250" stroke="#c8c8c8" fill="none"/><g font-family="Arial,PingFang SC,sans-serif" fill="#111" font-size="22"><text x="42" y="138" font-weight="600">左侧</text><text x="333" y="138" font-weight="600">右侧</text><text x="60" y="187">苹果菜单</text><text x="60" y="229">App 菜单</text><circle cx="349" cy="161" r="3" fill="#666"/><text x="367" y="168">状态菜单</text><circle cx="349" cy="199" r="3" fill="#666"/><text x="367" y="206">聚焦</text><circle cx="349" cy="237" r="3" fill="#666"/><text x="367" y="244">控制中心</text><circle cx="349" cy="275" r="3" fill="#666"/><text x="367" y="282">隐私指示符</text><circle cx="349" cy="313" r="3" fill="#666"/><text x="367" y="320">通知中心</text></g><circle cx="43" cy="180" r="3" fill="#666"/><circle cx="43" cy="222" r="3" fill="#666"/></svg>
